<svg xmlns="http://www.w3.org/2000/svg" viewBox="0 0 512 512" fill="none">
  <!-- Background Container -->
  <rect width="512" height="512" rx="112" fill="#1c3327"/>
  
  <!-- Subtle Mountain Silhouette -->
  <path d="M60 380 L200 240 L310 330 L450 190 L512 250 L512 400 L0 400 Z" fill="#2d4a3e" opacity="0.4"/>
  
  <!-- Left Timber Cabin (Switchback) -->
  <polygon points="120,310 120,230 200,165 280,230 280,310" fill="#a85e2e"/>
  <polygon points="108,235 200,155 292,235 276,248 200,180 124,248" fill="#faf8f5"/>
  <rect x="185" y="250" width="30" height="60" fill="#faf8f5" rx="3"/>

  <!-- Right Timber Cabin (Berm) -->
  <polygon points="260,340 260,260 340,195 420,260 420,340" fill="#c4743c"/>
  <polygon points="248,265 340,185 432,265 416,278 340,210 264,278" fill="#ffffff"/>
  <rect x="325" y="280" width="30" height="60" fill="#ffffff" rx="3"/>
  
  <!-- Trail / River Arc -->
  <path d="M70 425 Q250 380 442 425" stroke="#7a9a8b" stroke-width="22" stroke-linecap="round"/>
</svg>
